<?xml version="1.0" encoding="UTF-8" standalone="no"?>
<!DOCTYPE svg PUBLIC "-//W3C//DTD SVG 20010904//EN" "http://www.w3.org/TR/2001/REC-SVG-20010904/DTD/svg10.dtd">
<svg version="1.0" xmlns="http://www.w3.org/2000/svg" width="840.000000pt" height="457.000000pt" viewBox="0 0 840.000000 457.000000" preserveAspectRatio="xMidYMid meet">

<g transform="translate(0.000000,457.000000) scale(0.100000,-0.100000)" fill="#000000" stroke="none">
<path d="M4066 4245 c-11 -43 -72 -101 -138 -130 l-62 -28 -165 6 c-92 4 -269 15 -396 27 -810 72 -1275 72 -1533 0 -144 -40 -251 -116 -267 -190 -5 -23 -13 -30 -44 -35 -84 -14 -181 -96 -205 -172 l-7 -23 -375 0 -374 0 0 -28 c0 -59 -95 -153 -168 -168 -32 -6 -33 -8 -28 -43 8 -51 52 -467 68 -641 20 -223 17 -875 -5 -1120 -18 -190 -51 -502 -62 -587 -6 -39 -4 -43 15 -43 68 0 180 -107 180 -172 l0 -28 374 0 c354 0 375 -1 380 -18 26 -81 122 -163 207 -177 31 -5 39 -12 44 -35 9 -43 67 -103 132 -137 231 -124 698 -138 1673 -52 124 11 299 22 391 26 l165 6 62 -28 c66 -29 127 -87 138 -130 5 -19 13 -25 33 -25 22 0 29 7 39 34 16 43 70 91 136 122 66 31 162 31 501 4 523 -43 623 -50 864 -60 471 -20 799 20 951 115 48 30 100 90 106 124 5 24 13 30 55 39 27 7 66 23 88 36 40 26 92 92 105 134 l7 22 475 0 474 0 0 28 c0 32 43 97 86 131 16 12 48 27 72 34 41 11 43 13 38 42 -7 38 -51 455 -68 645 -20 220 -17 896 5 1130 19 199 54 522 63 581 5 36 5 36 -39 47 -24 6 -56 21 -71 33 -43 34 -86 99 -86 131 l0 28 -475 0 c-384 0 -475 3 -475 13 0 26 -60 107 -100 136 -23 16 -65 35 -95 42 -46 10 -54 15 -59 40 -6 33 -58 94 -106 124 -103 65 -276 101 -545 115 -270 14 -508 3 -1270 -60 -333 -27 -436 -27 -501 4 -66 31 -120 79 -136 122 -10 27 -17 34 -39 34 -20 0 -28 -6 -33 -25z m75 -111 c18 -20 61 -50 94 -67 l60 -32 170 1 c94 1 305 13 470 28 940 80 1357 70 1582 -40 83 -40 122 -83 130 -144 6 -39 6 -40 47 -40 51 0 117 -30 152 -67 15 -15 37 -52 50 -80 l23 -53 464 0 465 0 6 -26 c9 -35 92 -121 140 -146 l39 -20 -7 -61 c-59 -557 -76 -800 -76 -1102 0 -302 17 -545 76 -1101 l7 -62 -36 -17 c-45 -21 -134 -114 -143 -149 l-6 -26 -468 0 -467 0 -18 -46 c-35 -92 -115 -153 -201 -154 -41 0 -41 -1 -47 -40 -17 -131 -200 -205 -567 -231 -242 -16 -550 -4 -1145 47 -165 15 -376 27 -470 28 -169 1 -170 1 -225 -28 -30 -15 -74 -46 -97 -68 l-41 -41 -39 38 c-21 21 -71 54 -111 73 l-74 35 -161 -6 c-89 -4 -267 -16 -395 -27 -981 -85 -1417 -75 -1642 38 -82 41 -116 80 -126 144 -6 37 -8 38 -48 38 -86 1 -166 62 -201 154 l-18 46 -367 0 -368 0 -6 26 c-9 35 -91 121 -138 145 -45 23 -44 10 -18 239 47 418 54 544 54 945 0 401 -7 527 -54 945 -26 230 -27 216 19 239 45 23 129 113 137 147 l6 24 368 0 367 0 18 46 c35 92 115 153 201 154 40 0 42 1 48 38 10 64 44 103 126 144 225 113 661 123 1642 38 128 -11 306 -23 395 -27 l161 -6 74 35 c40 19 89 51 108 71 19 20 37 36 41 36 3 1 21 -15 40 -35z"/>
<path d="M4081 4075 c-17 -49 -66 -94 -140 -128 l-63 -30 -137 7 c-75 3 -257 17 -406 31 -471 43 -693 56 -951 56 -427 0 -629 -41 -726 -149 -20 -22 -39 -54 -43 -71 -6 -27 -11 -31 -38 -31 -70 0 -162 -71 -189 -147 l-12 -33 -370 -2 -370 -3 -8 -34 c-12 -43 -96 -127 -139 -139 -41 -11 -41 13 -6 -327 15 -137 31 -319 37 -403 13 -198 13 -598 -1 -794 -10 -155 -54 -608 -65 -677 -6 -37 -5 -38 40 -55 52 -20 122 -92 134 -140 l8 -31 370 -3 370 -2 12 -33 c27 -76 119 -147 189 -147 26 0 31 -5 41 -39 14 -47 75 -105 139 -132 24 -10 90 -29 146 -41 93 -21 129 -22 412 -23 329 0 376 4 975 65 206 22 427 42 491 46 105 6 119 5 165 -15 80 -36 122 -70 147 -122 24 -46 37 -53 37 -19 0 31 70 99 136 131 l65 32 127 -7 c70 -3 264 -20 432 -36 818 -80 1160 -88 1430 -34 145 29 251 97 277 179 8 25 17 31 51 37 22 4 54 14 70 22 37 19 90 80 108 123 l14 33 466 2 466 3 13 39 c18 51 78 112 133 133 42 16 43 17 38 52 -7 46 -41 364 -58 546 -8 89 -13 286 -13 540 1 410 6 492 55 929 11 93 17 172 15 176 -3 4 -18 10 -35 14 -40 8 -126 94 -138 137 l-8 34 -467 3 -467 2 -15 38 c-31 72 -100 127 -177 140 -34 6 -43 12 -51 37 -17 53 -55 93 -120 124 -136 66 -274 86 -612 85 -281 0 -388 -7 -940 -59 -198 -19 -417 -38 -487 -41 l-127 -7 -65 32 c-67 33 -136 100 -136 132 0 32 -16 29 -29 -6z m157 -141 c56 -27 57 -27 227 -21 93 3 307 20 475 37 723 72 1146 80 1386 25 149 -34 232 -87 255 -163 10 -36 14 -39 68 -50 72 -15 127 -60 160 -131 l24 -51 462 0 461 0 17 -39 c20 -46 95 -118 138 -133 16 -5 29 -15 29 -22 0 -6 -9 -90 -20 -186 -45 -403 -54 -548 -54 -905 0 -357 9 -502 54 -905 11 -96 20 -179 20 -185 0 -6 -18 -19 -39 -28 -46 -20 -118 -95 -133 -138 l-10 -29 -464 0 -463 0 -22 -50 c-30 -70 -87 -117 -160 -132 -54 -11 -58 -14 -68 -49 -25 -82 -109 -133 -283 -171 -96 -21 -126 -23 -443 -22 -352 1 -386 3 -1059 69 -143 14 -311 25 -373 25 -102 0 -120 -3 -168 -26 -31 -14 -73 -46 -97 -73 l-42 -47 -31 40 c-16 21 -57 55 -90 73 l-60 34 -160 -5 c-88 -2 -308 -20 -490 -40 -495 -53 -706 -68 -965 -69 -258 -1 -380 11 -501 49 -115 36 -189 100 -189 162 0 16 -10 21 -48 26 -74 10 -132 52 -170 124 l-33 62 -364 0 -363 0 -10 29 c-15 43 -88 118 -134 138 l-40 18 6 52 c46 388 76 813 76 1058 0 229 -27 610 -66 940 -18 157 -19 151 19 166 46 19 111 82 132 129 l18 40 363 0 363 0 29 58 c35 71 100 118 173 128 41 6 49 10 49 28 0 53 67 120 155 154 234 92 632 93 1595 7 157 -14 339 -26 406 -27 121 -1 121 -1 185 34 37 20 77 51 94 74 l30 40 43 -47 c25 -28 67 -59 100 -75z"/>
</g>
</svg>